<?xml version="1.0" encoding="utf-8"?>
<!-- Generator: Adobe Illustrator 24.0.3, SVG Export Plug-In . SVG Version: 6.00 Build 0)  -->
<svg version="1.1" id="Layer_1" xmlns="http://www.w3.org/2000/svg" xmlns:xlink="http://www.w3.org/1999/xlink" x="0px" y="0px"
	 viewBox="0 0 1327.5 329.8" style="enable-background:new 0 0 1327.5 329.8;" xml:space="preserve">
<style type="text/css">
	.st0{fill:#27348B;}
	.st1{fill:#EA5B0C;}
</style>
<g>
	<g>
		<path class="st0" d="M67.1,205.7c-7.9,0-11.6-3.4-11.6-11.6V29.3h-44C3.4,29.3,0,25.6,0,17.8v-3.4C0,6.2,3.4,2.8,11.6,2.8h122.6
			c7.9,0,11.3,3.4,11.3,11.6v3.4c0,7.9-3.4,11.6-11.3,11.6H91v164.8c0,8.2-3.7,11.6-11.6,11.6H67.1z"/>
		<path class="st0" d="M275.8,177.8c7.9,0,11.6,3.4,11.6,11.6v4.8c0,8.2-3.7,11.6-11.6,11.6h-44.5c-46.2,0-67.6-21.1-67.6-66.2V14.4
			c0-8.2,3.7-11.6,11.6-11.6h12.4c7.9,0,11.6,3.4,11.6,11.6v116.9c0,32.4,13.5,46.5,47.1,46.5H275.8z"/>
		<path class="st0" d="M429.6,19.7c-1.1,8.7-3.9,11-10.7,10.1c-9.3-1.4-25.4-3.7-44.2-3.7c-22.8,0-38.9,4.5-38.9,25.6
			c0,44.2,99.2,16.1,99.2,97.5c0,42.5-29,59.2-76.9,59.2c-19.7,0-35.5-2-49.6-3.9c-7.9-0.8-10.1-4.5-10.1-11.6v-4.5
			c0-7.9,4.5-10.4,11.8-9.9c7.9,1.1,29.9,3.7,47.6,3.7c36.9,0,42.8-16.9,42.8-30.7c0-53.5-98.9-28.7-98.9-96.9
			c0-44.5,33.8-54.7,73-54.7c15.5,0,34.4,1.7,47.1,4.5c5.4,1.1,9.9,2.8,8.5,10.7L429.6,19.7z"/>
		<path class="st1" d="M561.2,65.6c-0.6,3.9-1.4,5.1-4.8,4.8c-12.4-1.4-15.8-2-28.2-2c-34.1,0-48.5,21.4-48.5,60.3v4.8
			c0,39.7,15.2,60,49.9,60c11.8,0,20.3-1.1,27.6-2.3c3.7-0.6,4.2,3.1,4.5,5.1l0.6,3.4c0.6,3.9-0.8,5.1-4.8,5.6
			c-12.1,2-22.8,3.1-31.6,3.1c-46.8,0-66.2-25.9-66.2-75.5v-4.2c0-48.2,20-75.2,64.8-75.2c13.8,0,21.1,0.8,32.7,2.8
			c3.4,0.6,5.4,1.7,4.8,5.9L561.2,65.6z"/>
		<path class="st1" d="M587.7,128.5c0-47.3,22-74.9,65.4-74.9c43.4,0,65.4,27.6,65.4,74.9v4.8c0,47.1-22,75.2-65.4,75.2
			c-43.4,0-65.4-28.2-65.4-75.2V128.5z M698.4,128.5c0-38-14.9-60-45.4-60c-30.7,0-45.4,22-45.4,60v4.8c0,37.2,14.7,60.3,45.4,60.3
			c30.4,0,45.4-23.1,45.4-60.3V128.5z"/>
		<path class="st1" d="M868.3,199.5c0,4.2-2,6.2-5.9,6.2h-6.5c-4.2,0-6.2-2-6.2-6.2v-91.6c0-23.1-10.4-38.6-36.1-38.6
			c-15.2,0-35.5,5.4-42.8,9v121.1c0,4.2-2,6.2-6.2,6.2h-6.5c-4.2,0-6.2-2-6.2-6.2V74.1c0-4.2,2-7,5.9-9
			c11.6-5.4,35.2-11.6,57.2-11.6c37.8,0,53.2,20.6,53.2,52.1V199.5z"/>
		<path class="st1" d="M910,71.3h-10.1c-4.2,0-6.2-2-6.2-6.2v-2.5c0-4.2,2-6.2,6.2-6.2H910V30.4c0-4.2,2-6.2,6.2-6.2h6.5
			c4.2,0,6.2,2,6.2,6.2v25.9h26.8c4.5,0,6.2,2,6.2,6.2v2.5c0,4.2-1.7,6.2-6.2,6.2h-26.8v96.1c0,13.8,4.5,23.4,19.4,23.4
			c3.7,0,9-0.6,14.4-2c2.5-0.3,4.2,2,4.2,5.9v2.8c0,4.2-0.3,5.4-4.8,5.9c-5.4,1.7-10.4,2.3-15.8,2.3c-25.9,0-36.3-13-36.3-38.3V71.3
			z"/>
		<path class="st1" d="M1079,127.1V97.2c0-17.2-8.5-28.7-36.1-28.7c-14.7,0-33.8,2.8-42.8,4.5c-4.8,0.8-5.4-0.3-6.5-4.8l-0.6-2.3
			c-1.1-5.1,0.8-6.5,5.1-7.3c12.1-2.8,34.4-5.1,49-5.1c37.8,0,50.7,14.9,50.7,43.7v96.1c0,4.5-0.8,5.9-6.2,7.3
			c-8.5,3.4-26.2,7.9-48.7,7.9c-34.9,0-61.7-9.9-61.7-42.8v-3.9c0-26.8,20-41.7,55.8-41.7C1052.3,120,1065.5,122.6,1079,127.1z
			 M1001.3,164.8c0,22,15.5,30.1,42.8,30.1c17.2,0,29.9-3.4,34.9-5.4v-49c-5.6-3.1-20.3-7.3-37.5-7.3c-27,0-40.3,10.4-40.3,29.6
			V164.8z"/>
		<path class="st1" d="M1232.9,65.6c-0.6,3.9-1.4,5.1-4.8,4.8c-12.4-1.4-15.8-2-28.2-2c-34.1,0-48.5,21.4-48.5,60.3v4.8
			c0,39.7,15.2,60,49.9,60c11.8,0,20.3-1.1,27.6-2.3c3.7-0.6,4.2,3.1,4.5,5.1l0.6,3.4c0.6,3.9-0.8,5.1-4.8,5.6
			c-12.1,2-22.8,3.1-31.6,3.1c-46.8,0-66.2-25.9-66.2-75.5v-4.2c0-48.2,20-75.2,64.8-75.2c13.8,0,21.1,0.8,32.7,2.8
			c3.4,0.6,5.4,1.7,4.8,5.9L1232.9,65.6z"/>
		<path class="st1" d="M1267.5,71.3h-10.1c-4.2,0-6.2-2-6.2-6.2v-2.5c0-4.2,2-6.2,6.2-6.2h10.1V30.4c0-4.2,2-6.2,6.2-6.2h6.5
			c4.2,0,6.2,2,6.2,6.2v25.9h26.8c4.5,0,6.2,2,6.2,6.2v2.5c0,4.2-1.7,6.2-6.2,6.2h-26.8v96.1c0,13.8,4.5,23.4,19.4,23.4
			c3.7,0,9-0.6,14.4-2c2.5-0.3,4.2,2,4.2,5.9v2.8c0,4.2-0.3,5.4-4.8,5.9c-5.4,1.7-10.4,2.3-15.8,2.3c-25.9,0-36.3-13-36.3-38.3V71.3
			z"/>
	</g>
	<g>
		<path class="st0" d="M491.4,315.4l-3.1-10.2h-15.6l-3.1,10.2h-9.8l15.1-43H486l15.2,43H491.4z M486.1,297.5l-3.1-10
			c-0.2-0.7-0.5-1.5-0.8-2.6c-0.3-1-0.6-2.1-1-3.2c-0.3-1.1-0.6-2-0.8-2.8c-0.2,0.8-0.5,1.8-0.8,3c-0.3,1.2-0.7,2.3-1,3.4
			c-0.3,1.1-0.5,1.8-0.7,2.2l-3.1,10H486.1z"/>
		<path class="st0" d="M538.7,315.4h-9.1v-35.3H518v-7.6h32.3v7.6h-11.6V315.4z"/>
		<path class="st0" d="M569.7,282c4.5,0,8.1,1.3,10.7,3.9c2.6,2.6,4,6.3,4,11v4.3h-21.1c0.1,2.5,0.8,4.5,2.2,5.9
			c1.4,1.4,3.4,2.2,5.9,2.2c2.1,0,4-0.2,5.7-0.6c1.7-0.4,3.5-1.1,5.4-1.9v6.9c-1.6,0.8-3.3,1.4-5.1,1.8c-1.8,0.4-3.9,0.6-6.4,0.6
			c-3.3,0-6.2-0.6-8.7-1.8c-2.5-1.2-4.5-3.1-5.9-5.5c-1.4-2.5-2.2-5.6-2.2-9.4s0.6-7,1.9-9.5c1.3-2.6,3.1-4.5,5.4-5.8
			C563.9,282.6,566.6,282,569.7,282z M569.7,288.4c-1.8,0-3.2,0.6-4.3,1.7c-1.1,1.1-1.8,2.9-2,5.2H576c0-2-0.6-3.6-1.6-4.9
			C573.4,289,571.8,288.4,569.7,288.4z"/>
		<path class="st0" d="M600.6,315.4h-8.9v-45.6h8.9V315.4z"/>
		<path class="st0" d="M623.4,282c4.5,0,8.1,1.3,10.7,3.9c2.6,2.6,4,6.3,4,11v4.3H617c0.1,2.5,0.8,4.5,2.2,5.9
			c1.4,1.4,3.4,2.2,5.9,2.2c2.1,0,4-0.2,5.7-0.6c1.7-0.4,3.5-1.1,5.4-1.9v6.9c-1.6,0.8-3.3,1.4-5.1,1.8c-1.8,0.4-3.9,0.6-6.4,0.6
			c-3.3,0-6.2-0.6-8.7-1.8c-2.5-1.2-4.5-3.1-5.9-5.5c-1.4-2.5-2.2-5.6-2.2-9.4s0.6-7,1.9-9.5c1.3-2.6,3.1-4.5,5.4-5.8
			C617.7,282.6,620.4,282,623.4,282z M623.5,288.4c-1.8,0-3.2,0.6-4.3,1.7c-1.1,1.1-1.8,2.9-2,5.2h12.5c0-2-0.6-3.6-1.6-4.9
			C627.1,289,625.6,288.4,623.5,288.4z"/>
		<path class="st0" d="M663.6,282c3.7,0,6.7,1.4,8.9,4.3c2.3,2.9,3.4,7.1,3.4,12.6c0,5.6-1.2,9.8-3.5,12.7c-2.4,2.9-5.4,4.3-9.1,4.3
			c-2.4,0-4.2-0.4-5.6-1.3c-1.4-0.9-2.5-1.8-3.4-2.9h-0.5c0.3,1.7,0.5,3.3,0.5,4.8v13.2h-8.9v-47.2h7.3l1.3,4.3h0.4
			c0.9-1.3,2.1-2.5,3.5-3.4C659.4,282.5,661.3,282,663.6,282z M660.8,289.1c-2.3,0-4,0.7-4.9,2.2c-1,1.5-1.5,3.7-1.5,6.6v1
			c0,3.2,0.5,5.6,1.4,7.3c0.9,1.7,2.6,2.5,5.1,2.5c2,0,3.5-0.8,4.5-2.5c1-1.7,1.5-4.1,1.5-7.3C666.9,292.4,664.8,289.1,660.8,289.1z
			"/>
		<path class="st0" d="M696.9,282c4.5,0,8.1,1.3,10.7,3.9c2.6,2.6,4,6.3,4,11v4.3h-21.1c0.1,2.5,0.8,4.5,2.2,5.9
			c1.4,1.4,3.4,2.2,5.9,2.2c2.1,0,4-0.2,5.7-0.6c1.7-0.4,3.5-1.1,5.4-1.9v6.9c-1.6,0.8-3.3,1.4-5.1,1.8c-1.8,0.4-3.9,0.6-6.4,0.6
			c-3.3,0-6.2-0.6-8.7-1.8c-2.5-1.2-4.5-3.1-5.9-5.5c-1.4-2.5-2.2-5.6-2.2-9.4s0.6-7,1.9-9.5c1.3-2.6,3.1-4.5,5.4-5.8
			C691.1,282.6,693.8,282,696.9,282z M696.9,288.4c-1.8,0-3.2,0.6-4.3,1.7c-1.1,1.1-1.8,2.9-2,5.2h12.5c0-2-0.6-3.6-1.6-4.9
			C700.6,289,699,288.4,696.9,288.4z"/>
		<path class="st0" d="M737.1,282c0.4,0,1,0,1.6,0.1c0.6,0,1.1,0.1,1.4,0.2l-0.7,8.4c-0.3-0.1-0.7-0.2-1.3-0.2
			c-0.5-0.1-1-0.1-1.4-0.1c-1.5,0-3,0.3-4.4,0.8c-1.4,0.5-2.5,1.4-3.4,2.6c-0.9,1.2-1.3,2.8-1.3,4.9v16.7h-8.9v-32.8h6.8l1.3,5.5
			h0.4c1-1.7,2.3-3.1,4-4.3C733,282.6,734.9,282,737.1,282z"/>
		<path class="st0" d="M764.2,289.3h-7.7v26h-8.9v-26h-4.9V285l4.9-2.4v-2.4c0-2.8,0.5-5,1.4-6.5c0.9-1.5,2.3-2.6,4-3.3
			c1.7-0.6,3.8-1,6.2-1c1.7,0,3.3,0.1,4.7,0.4c1.4,0.3,2.6,0.6,3.5,1l-2.3,6.5c-0.7-0.2-1.4-0.4-2.2-0.6c-0.8-0.2-1.7-0.3-2.7-0.3
			c-1.2,0-2.2,0.4-2.7,1.1c-0.6,0.8-0.9,1.7-0.9,2.9v2h7.7V289.3z"/>
		<path class="st0" d="M799.1,298.9c0,5.4-1.4,9.6-4.3,12.6c-2.9,3-6.8,4.4-11.7,4.4c-3,0-5.8-0.7-8.1-2c-2.4-1.3-4.3-3.2-5.6-5.8
			c-1.4-2.5-2-5.6-2-9.3c0-5.4,1.4-9.6,4.3-12.5c2.8-2.9,6.7-4.4,11.7-4.4c3.1,0,5.8,0.7,8.2,2c2.4,1.3,4.2,3.2,5.6,5.8
			C798.4,292.3,799.1,295.3,799.1,298.9z M776.4,298.9c0,3.2,0.5,5.7,1.6,7.4c1.1,1.7,2.8,2.5,5.2,2.5c2.4,0,4.1-0.8,5.1-2.5
			c1.1-1.7,1.6-4.1,1.6-7.4c0-3.2-0.5-5.7-1.6-7.3c-1.1-1.6-2.8-2.4-5.2-2.4c-2.4,0-4.1,0.8-5.1,2.4
			C777,293.3,776.4,295.7,776.4,298.9z"/>
		<path class="st0" d="M824.7,282c0.4,0,1,0,1.6,0.1c0.6,0,1.1,0.1,1.4,0.2l-0.7,8.4c-0.3-0.1-0.7-0.2-1.3-0.2
			c-0.5-0.1-1-0.1-1.4-0.1c-1.5,0-3,0.3-4.4,0.8c-1.4,0.5-2.5,1.4-3.4,2.6c-0.9,1.2-1.3,2.8-1.3,4.9v16.7h-8.9v-32.8h6.8l1.3,5.5
			h0.4c1-1.7,2.3-3.1,4-4.3C820.6,282.6,822.5,282,824.7,282z"/>
		<path class="st0" d="M872.1,282c3.7,0,6.5,1,8.4,2.9c1.9,1.9,2.9,5,2.9,9.1v21.4h-8.9v-19.1c0-4.7-1.6-7.1-4.9-7.1
			c-2.4,0-4,0.8-5,2.5c-1,1.7-1.5,4.1-1.5,7.3v16.4h-8.9v-19.1c0-4.7-1.6-7.1-4.9-7.1c-2.5,0-4.2,0.9-5.1,2.8
			c-0.9,1.9-1.4,4.5-1.4,8v15.4h-8.9v-32.8h6.8l1.2,4.2h0.5c1-1.7,2.4-2.9,4.1-3.7c1.7-0.8,3.5-1.1,5.4-1.1c2.4,0,4.4,0.4,6.1,1.2
			c1.7,0.8,2.9,2,3.9,3.6h0.8c1-1.7,2.4-2.9,4.2-3.7C868.4,282.4,870.3,282,872.1,282z"/>
		<path class="st0" d="M906,281.9c4.4,0,7.8,1,10.1,2.8c2.3,1.9,3.5,4.8,3.5,8.7v21.8h-6.2l-1.7-4.4h-0.2c-1.4,1.8-2.9,3-4.4,3.8
			c-1.6,0.8-3.7,1.2-6.4,1.2c-2.9,0-5.3-0.8-7.3-2.5c-1.9-1.7-2.9-4.3-2.9-7.9c0-3.5,1.2-6,3.7-7.7c2.4-1.6,6.1-2.6,11-2.8l5.7-0.2
			v-1.4c0-1.7-0.4-3-1.4-3.8c-0.9-0.8-2.2-1.2-3.8-1.2c-1.6,0-3.2,0.2-4.7,0.7c-1.5,0.5-3,1-4.6,1.7l-2.9-6.1
			c1.7-0.9,3.7-1.6,5.8-2.1C901.5,282.2,903.7,281.9,906,281.9z M910.8,300.2l-3.5,0.1c-2.9,0.1-4.9,0.6-6,1.6
			c-1.1,1-1.7,2.2-1.7,3.8c0,1.4,0.4,2.3,1.2,2.9c0.8,0.6,1.8,0.9,3.1,0.9c1.9,0,3.5-0.6,4.9-1.7c1.3-1.1,2-2.7,2-4.8V300.2z"/>
		<path class="st0" d="M947.4,282c3.5,0,6.3,1,8.5,2.9c2.1,1.9,3.2,5,3.2,9.1v21.4h-8.9v-19.1c0-2.4-0.4-4.1-1.3-5.3
			c-0.8-1.2-2.2-1.8-4-1.8c-2.7,0-4.6,0.9-5.6,2.8c-1,1.9-1.5,4.5-1.5,8v15.4h-8.9v-32.8h6.8l1.2,4.2h0.5c1-1.7,2.5-2.9,4.3-3.7
			C943.5,282.4,945.4,282,947.4,282z"/>
		<path class="st0" d="M981.6,316c-4.9,0-8.7-1.3-11.3-4c-2.7-2.7-4-6.9-4-12.8c0-4,0.7-7.3,2-9.8c1.4-2.5,3.2-4.4,5.7-5.6
			c2.4-1.2,5.2-1.8,8.4-1.8c2.2,0,4.2,0.2,5.9,0.7c1.7,0.4,3.1,1,4.4,1.6l-2.6,6.9c-1.4-0.6-2.7-1-3.9-1.4c-1.2-0.4-2.4-0.5-3.6-0.5
			c-4.6,0-7,3.3-7,9.9c0,3.3,0.6,5.7,1.8,7.3c1.2,1.6,2.9,2.3,5.1,2.3c1.9,0,3.5-0.2,5-0.8c1.4-0.5,2.8-1.2,4.2-2.1v7.6
			c-1.4,0.9-2.8,1.5-4.3,1.9S983.9,316,981.6,316z"/>
		<path class="st0" d="M1012.6,282c4.5,0,8.1,1.3,10.7,3.9c2.6,2.6,4,6.3,4,11v4.3h-21.1c0.1,2.5,0.8,4.5,2.2,5.9
			c1.4,1.4,3.4,2.2,5.9,2.2c2.1,0,4-0.2,5.7-0.6c1.7-0.4,3.5-1.1,5.4-1.9v6.9c-1.6,0.8-3.3,1.4-5.1,1.8c-1.8,0.4-3.9,0.6-6.4,0.6
			c-3.3,0-6.2-0.6-8.7-1.8c-2.5-1.2-4.5-3.1-5.9-5.5c-1.4-2.5-2.2-5.6-2.2-9.4s0.6-7,1.9-9.5c1.3-2.6,3.1-4.5,5.4-5.8
			C1006.8,282.6,1009.5,282,1012.6,282z M1012.7,288.4c-1.8,0-3.2,0.6-4.3,1.7c-1.1,1.1-1.8,2.9-2,5.2h12.5c0-2-0.6-3.6-1.6-4.9
			C1016.3,289,1014.7,288.4,1012.7,288.4z"/>
		<path class="st0" d="M1069.1,279.5c-3.5,0-6.1,1.3-8,3.9c-1.8,2.6-2.8,6.2-2.8,10.7c0,4.6,0.8,8.1,2.6,10.6
			c1.7,2.5,4.4,3.8,8.2,3.8c1.7,0,3.5-0.2,5.2-0.6c1.8-0.4,3.7-1,5.7-1.7v7.6c-1.9,0.8-3.7,1.3-5.6,1.7c-1.8,0.4-3.9,0.5-6.2,0.5
			c-4.4,0-8.1-0.9-10.9-2.7c-2.8-1.8-4.9-4.4-6.3-7.7c-1.4-3.3-2-7.1-2-11.6c0-4.3,0.8-8.1,2.3-11.5c1.6-3.3,3.8-5.9,6.8-7.8
			c3-1.9,6.6-2.8,11-2.8c2.1,0,4.2,0.3,6.4,0.8c2.1,0.5,4.2,1.3,6.1,2.2l-2.9,7.4c-1.6-0.8-3.2-1.4-4.8-2
			C1072.2,279.8,1070.6,279.5,1069.1,279.5z"/>
		<path class="st0" d="M1118.1,298.9c0,5.4-1.4,9.6-4.3,12.6c-2.9,3-6.8,4.4-11.7,4.4c-3,0-5.8-0.7-8.1-2c-2.4-1.3-4.3-3.2-5.6-5.8
			c-1.4-2.5-2-5.6-2-9.3c0-5.4,1.4-9.6,4.3-12.5c2.8-2.9,6.7-4.4,11.7-4.4c3.1,0,5.8,0.7,8.2,2c2.4,1.3,4.2,3.2,5.6,5.8
			C1117.5,292.3,1118.1,295.3,1118.1,298.9z M1095.5,298.9c0,3.2,0.5,5.7,1.6,7.4c1.1,1.7,2.8,2.5,5.2,2.5c2.4,0,4.1-0.8,5.1-2.5
			c1.1-1.7,1.6-4.1,1.6-7.4c0-3.2-0.5-5.7-1.6-7.3c-1.1-1.6-2.8-2.4-5.2-2.4c-2.4,0-4.1,0.8-5.1,2.4
			C1096,293.3,1095.5,295.7,1095.5,298.9z"/>
		<path class="st0" d="M1164,282c3.7,0,6.5,1,8.4,2.9c1.9,1.9,2.9,5,2.9,9.1v21.4h-8.9v-19.1c0-4.7-1.6-7.1-4.9-7.1
			c-2.4,0-4,0.8-5,2.5c-1,1.7-1.5,4.1-1.5,7.3v16.4h-8.9v-19.1c0-4.7-1.6-7.1-4.9-7.1c-2.5,0-4.2,0.9-5.1,2.8
			c-0.9,1.9-1.4,4.5-1.4,8v15.4h-8.9v-32.8h6.8l1.2,4.2h0.5c1-1.7,2.4-2.9,4.1-3.7c1.7-0.8,3.5-1.1,5.4-1.1c2.4,0,4.4,0.4,6.1,1.2
			c1.7,0.8,2.9,2,3.9,3.6h0.8c1-1.7,2.4-2.9,4.2-3.7C1160.3,282.4,1162.1,282,1164,282z"/>
		<path class="st0" d="M1202.7,282c3.7,0,6.7,1.4,8.9,4.3c2.3,2.9,3.4,7.1,3.4,12.6c0,5.6-1.2,9.8-3.5,12.7
			c-2.4,2.9-5.4,4.3-9.1,4.3c-2.4,0-4.2-0.4-5.6-1.3c-1.4-0.9-2.5-1.8-3.4-2.9h-0.5c0.3,1.7,0.5,3.3,0.5,4.8v13.2h-8.9v-47.2h7.3
			l1.3,4.3h0.4c0.9-1.3,2.1-2.5,3.5-3.4C1198.4,282.5,1200.3,282,1202.7,282z M1199.8,289.1c-2.3,0-4,0.7-4.9,2.2
			c-1,1.5-1.5,3.7-1.5,6.6v1c0,3.2,0.5,5.6,1.4,7.3c0.9,1.7,2.6,2.5,5.1,2.5c2,0,3.5-0.8,4.5-2.5c1-1.7,1.5-4.1,1.5-7.3
			C1205.9,292.4,1203.9,289.1,1199.8,289.1z"/>
		<path class="st0" d="M1235.9,281.9c4.4,0,7.8,1,10.1,2.8c2.3,1.9,3.5,4.8,3.5,8.7v21.8h-6.2l-1.7-4.4h-0.2c-1.4,1.8-2.9,3-4.4,3.8
			c-1.6,0.8-3.7,1.2-6.4,1.2c-2.9,0-5.3-0.8-7.3-2.5c-1.9-1.7-2.9-4.3-2.9-7.9c0-3.5,1.2-6,3.7-7.7c2.4-1.6,6.1-2.6,11-2.8l5.7-0.2
			v-1.4c0-1.7-0.4-3-1.4-3.8c-0.9-0.8-2.2-1.2-3.8-1.2c-1.6,0-3.2,0.2-4.7,0.7c-1.5,0.5-3,1-4.6,1.7l-2.9-6.1
			c1.7-0.9,3.7-1.6,5.8-2.1C1231.3,282.2,1233.5,281.9,1235.9,281.9z M1240.6,300.2l-3.5,0.1c-2.9,0.1-4.9,0.6-6,1.6
			c-1.1,1-1.7,2.2-1.7,3.8c0,1.4,0.4,2.3,1.2,2.9c0.8,0.6,1.8,0.9,3.1,0.9c1.9,0,3.5-0.6,4.9-1.7c1.3-1.1,2-2.7,2-4.8V300.2z"/>
		<path class="st0" d="M1277.3,282c3.5,0,6.3,1,8.5,2.9c2.1,1.9,3.2,5,3.2,9.1v21.4h-8.9v-19.1c0-2.4-0.4-4.1-1.3-5.3
			c-0.8-1.2-2.2-1.8-4-1.8c-2.7,0-4.6,0.9-5.6,2.8c-1,1.9-1.5,4.5-1.5,8v15.4h-8.9v-32.8h6.8l1.2,4.2h0.5c1-1.7,2.5-2.9,4.3-3.7
			C1273.3,282.4,1275.2,282,1277.3,282z"/>
		<path class="st0" d="M1293.4,282.6h9.8l6.2,18.4c0.3,0.9,0.6,1.8,0.7,2.8c0.2,0.9,0.3,1.9,0.4,2.9h0.2c0.1-1,0.3-2,0.5-2.9
			c0.2-0.9,0.5-1.8,0.8-2.8l6.1-18.4h9.6l-13.9,37c-1.3,3.4-3.1,5.9-5.5,7.6c-2.4,1.7-5.1,2.6-8.2,2.6c-1,0-1.9-0.1-2.6-0.2
			c-0.7-0.1-1.4-0.2-1.9-0.3v-7.1c0.4,0.1,0.9,0.2,1.6,0.2c0.6,0.1,1.3,0.1,2,0.1c1.9,0,3.4-0.6,4.4-1.7c1.1-1.1,1.9-2.5,2.5-4.1
			l0.5-1.6L1293.4,282.6z"/>
	</g>
</g>
</svg>
